<mxfile compressed="false" host="Electron" modified="2021-10-04T12:17:51.411Z" agent="5.0 (Windows NT 10.0; Win64; x64) AppleWebKit/537.36 (KHTML, like Gecko) draw.io/15.3.8 Chrome/94.0.4606.51 Electron/15.0.0 Safari/537.36" version="15.4.1" etag="YbwF9DApoR3SOo7Ul3Re" type="device">
  <diagram id="bNermD5G-iA41urxW04N" name="Page-1">
    <mxGraphModel dx="1010" dy="599" grid="1" gridSize="10" guides="1" tooltips="1" connect="1" arrows="1" fold="1" page="1" pageScale="1" pageWidth="827" pageHeight="1169" math="0" shadow="0">
      <root>
        <mxCell id="0" />
        <mxCell id="1" parent="0" />
        <mxCell id="E_sEVWwu72m1OGdqwTS8-12" value="" style="rounded=0;whiteSpace=wrap;html=1;sketch=1;strokeWidth=2;" parent="1" vertex="1">
          <mxGeometry x="40" y="120" width="645" height="360" as="geometry" />
        </mxCell>
        <mxCell id="E_sEVWwu72m1OGdqwTS8-1" value="&lt;font style=&quot;font-size: 18px&quot;&gt;&lt;b&gt;3&lt;/b&gt;&lt;/font&gt;" style="ellipse;whiteSpace=wrap;html=1;aspect=fixed;strokeWidth=2;sketch=1;" parent="1" vertex="1">
          <mxGeometry x="270" y="190" width="40" height="40" as="geometry" />
        </mxCell>
        <mxCell id="E_sEVWwu72m1OGdqwTS8-2" value="&lt;font style=&quot;font-size: 18px&quot;&gt;&lt;b&gt;9&lt;/b&gt;&lt;/font&gt;" style="ellipse;whiteSpace=wrap;html=1;aspect=fixed;strokeWidth=2;sketch=1;" parent="1" vertex="1">
          <mxGeometry x="210" y="280" width="40" height="40" as="geometry" />
        </mxCell>
        <mxCell id="E_sEVWwu72m1OGdqwTS8-3" value="&lt;font style=&quot;font-size: 18px&quot;&gt;&lt;b&gt;20&lt;/b&gt;&lt;/font&gt;" style="ellipse;whiteSpace=wrap;html=1;aspect=fixed;strokeWidth=2;sketch=1;fillColor=#ffe6cc;strokeColor=#d79b00;" parent="1" vertex="1">
          <mxGeometry x="310" y="280" width="40" height="40" as="geometry" />
        </mxCell>
        <mxCell id="E_sEVWwu72m1OGdqwTS8-4" value="&lt;font style=&quot;font-size: 18px&quot;&gt;&lt;b&gt;15&lt;/b&gt;&lt;/font&gt;" style="ellipse;whiteSpace=wrap;html=1;aspect=fixed;strokeWidth=2;sketch=1;" parent="1" vertex="1">
          <mxGeometry x="270" y="370" width="40" height="40" as="geometry" />
        </mxCell>
        <mxCell id="E_sEVWwu72m1OGdqwTS8-5" value="&lt;font style=&quot;font-size: 18px&quot;&gt;&lt;b&gt;7&lt;/b&gt;&lt;/font&gt;" style="ellipse;whiteSpace=wrap;html=1;aspect=fixed;strokeWidth=2;sketch=1;" parent="1" vertex="1">
          <mxGeometry x="350" y="370" width="40" height="40" as="geometry" />
        </mxCell>
        <mxCell id="E_sEVWwu72m1OGdqwTS8-7" value="" style="endArrow=none;html=1;strokeWidth=2;sketch=1;exitX=1;exitY=0;exitDx=0;exitDy=0;" parent="1" source="E_sEVWwu72m1OGdqwTS8-2" target="E_sEVWwu72m1OGdqwTS8-1" edge="1">
          <mxGeometry width="50" height="50" relative="1" as="geometry">
            <mxPoint x="230" y="280" as="sourcePoint" />
            <mxPoint x="280" y="230" as="targetPoint" />
          </mxGeometry>
        </mxCell>
        <mxCell id="E_sEVWwu72m1OGdqwTS8-8" value="" style="endArrow=none;html=1;strokeWidth=2;sketch=1;exitX=0.34;exitY=0.075;exitDx=0;exitDy=0;exitPerimeter=0;" parent="1" source="E_sEVWwu72m1OGdqwTS8-3" edge="1">
          <mxGeometry width="50" height="50" relative="1" as="geometry">
            <mxPoint x="270.0021356237311" y="288.70786437626896" as="sourcePoint" />
            <mxPoint x="300" y="230" as="targetPoint" />
          </mxGeometry>
        </mxCell>
        <mxCell id="E_sEVWwu72m1OGdqwTS8-9" value="" style="endArrow=none;html=1;strokeWidth=2;sketch=1;exitX=1;exitY=0;exitDx=0;exitDy=0;entryX=0;entryY=1;entryDx=0;entryDy=0;" parent="1" target="E_sEVWwu72m1OGdqwTS8-3" edge="1">
          <mxGeometry width="50" height="50" relative="1" as="geometry">
            <mxPoint x="290.0021356237311" y="369.9978643762689" as="sourcePoint" />
            <mxPoint x="325.57008489144835" y="311.2898585142526" as="targetPoint" />
          </mxGeometry>
        </mxCell>
        <mxCell id="E_sEVWwu72m1OGdqwTS8-10" value="" style="endArrow=none;html=1;strokeWidth=2;sketch=1;exitX=0.34;exitY=0.075;exitDx=0;exitDy=0;exitPerimeter=0;" parent="1" edge="1">
          <mxGeometry width="50" height="50" relative="1" as="geometry">
            <mxPoint x="363.5999999999999" y="370" as="sourcePoint" />
            <mxPoint x="340" y="317" as="targetPoint" />
          </mxGeometry>
        </mxCell>
        <mxCell id="E_sEVWwu72m1OGdqwTS8-13" value="&lt;font style=&quot;font-size: 14px&quot;&gt;&lt;b&gt;左子树最大深度为1&lt;br&gt;右子树最大深度为1&lt;br&gt;选最大的+1&lt;br&gt;&lt;/b&gt;&lt;b&gt;最大深度=1+1=2&lt;/b&gt;&lt;b&gt;&lt;br&gt;&lt;/b&gt;&lt;/font&gt;" style="text;html=1;strokeColor=none;fillColor=none;align=center;verticalAlign=middle;whiteSpace=wrap;rounded=0;sketch=1;" parent="1" vertex="1">
          <mxGeometry x="374" y="240" width="136" height="100" as="geometry" />
        </mxCell>
        <mxCell id="E_sEVWwu72m1OGdqwTS8-15" value="&lt;font style=&quot;font-size: 14px&quot;&gt;&lt;b&gt;最大深度==1&lt;/b&gt;&lt;/font&gt;" style="text;html=1;strokeColor=none;fillColor=none;align=center;verticalAlign=middle;whiteSpace=wrap;rounded=0;sketch=1;" parent="1" vertex="1">
          <mxGeometry x="100" y="290" width="100" height="20" as="geometry" />
        </mxCell>
        <mxCell id="E_sEVWwu72m1OGdqwTS8-19" value="&lt;font style=&quot;font-size: 14px&quot;&gt;&lt;b&gt;最大深度==1&lt;/b&gt;&lt;/font&gt;" style="text;html=1;strokeColor=none;fillColor=none;align=center;verticalAlign=middle;whiteSpace=wrap;rounded=0;sketch=1;" parent="1" vertex="1">
          <mxGeometry x="160" y="390" width="100" height="20" as="geometry" />
        </mxCell>
        <mxCell id="E_sEVWwu72m1OGdqwTS8-20" value="&lt;font style=&quot;font-size: 14px&quot;&gt;&lt;b&gt;最大深度==1&lt;/b&gt;&lt;/font&gt;" style="text;html=1;strokeColor=none;fillColor=none;align=center;verticalAlign=middle;whiteSpace=wrap;rounded=0;sketch=1;" parent="1" vertex="1">
          <mxGeometry x="410" y="390" width="100" height="20" as="geometry" />
        </mxCell>
      </root>
    </mxGraphModel>
  </diagram>
</mxfile>
